<?xml version="1.0" encoding="utf-8"?>
<!-- Generator: Adobe Illustrator 17.0.0, SVG Export Plug-In . SVG Version: 6.00 Build 0)  -->
<!DOCTYPE svg PUBLIC "-//W3C//DTD SVG 1.1//EN" "http://www.w3.org/Graphics/SVG/1.1/DTD/svg11.dtd">
<svg version="1.1" id="Layer_1" xmlns="http://www.w3.org/2000/svg" xmlns:xlink="http://www.w3.org/1999/xlink" x="0px" y="0px"
	 width="24px" height="15.572px" viewBox="0 0 24 15.572" enable-background="new 0 0 24 15.572" xml:space="preserve">
<g>
	<path fill="#E5E5E5" d="M23.999,0H10.028v12.166h6.346c0.498-1.091,1.597-1.853,2.873-1.853s2.375,0.762,2.873,1.853H24L23.999,0
		L23.999,0z"/>
	<path fill="#E5E5E5" d="M5.942,10.313c1.047,0,1.974,0.514,2.549,1.301V3.438H3.192L0,6.964v5.201h3.07
		C3.568,11.074,4.666,10.313,5.942,10.313z M1.961,7.294l1.782-2.115h2.831v3.79H1.961C1.961,8.969,1.961,7.294,1.961,7.294z"/>
	<circle fill="#E5E5E5" cx="5.942" cy="13.471" r="2.101"/>
	<circle fill="#E5E5E5" cx="19.247" cy="13.471" r="2.101"/>
</g>
</svg>
